<svg width="24" height="19" viewBox="0 0 24 19" fill="none" xmlns="http://www.w3.org/2000/svg">
<path d="M9.832 17.52C9.432 17.584 8.992 17.656 8.512 17.736C8.032 17.816 7.6 17.888 7.216 17.952C7.28 17.424 7.344 16.904 7.408 16.392C7.456 15.944 7.496 15.496 7.528 15.048C7.576 14.6 7.616 14.216 7.648 13.896H5.56L4.6 17.352C4.248 17.4 3.832 17.456 3.352 17.52C2.872 17.568 2.424 17.616 2.008 17.664C1.496 17.728 0.992 17.792 0.496 17.856C1.136 15.728 1.768 13.632 2.392 11.568C2.648 10.704 2.912 9.8 3.184 8.856C3.472 7.912 3.752 6.976 4.024 6.048C4.312 5.104 4.584 4.2 4.84 3.336C5.096 2.472 5.32 1.68 5.512 0.959999C6.6 0.879999 7.704 0.783999 8.824 0.671999C9.96 0.559999 11.064 0.407999 12.136 0.215999C12.088 0.727999 12.032 1.368 11.968 2.136C11.92 2.888 11.872 3.712 11.824 4.608C11.776 5.504 11.728 6.44 11.68 7.416C11.632 8.392 11.584 9.352 11.536 10.296C11.456 12.504 11.368 14.848 11.272 17.328C10.792 17.408 10.312 17.472 9.832 17.52ZM6.136 11.496C6.2 11.496 6.312 11.496 6.472 11.496C6.648 11.48 6.824 11.472 7 11.472C7.192 11.456 7.368 11.448 7.528 11.448C7.688 11.432 7.8 11.416 7.864 11.4C7.864 11.304 7.872 11.144 7.888 10.92C7.92 10.68 7.944 10.416 7.96 10.128C7.992 9.824 8.024 9.496 8.056 9.144C8.088 8.792 8.12 8.448 8.152 8.112C8.216 7.296 8.296 6.416 8.392 5.472L8.536 3.384L8.176 3.408L7.624 5.472L6.136 11.496ZM22.2308 11.976C22.2308 12.632 22.0948 13.24 21.8228 13.8C21.5508 14.36 21.1828 14.872 20.7188 15.336C20.2548 15.784 19.7108 16.184 19.0868 16.536C18.4788 16.872 17.8308 17.16 17.1428 17.4C16.4708 17.624 15.7748 17.8 15.0548 17.928C14.3508 18.04 13.6708 18.096 13.0148 18.096C12.4228 18.096 11.8708 18.048 11.3588 17.952C12.1268 15.152 12.7348 12.336 13.1828 9.504C13.6468 6.656 14.0868 3.792 14.5028 0.912C15.3348 0.735999 16.1988 0.583999 17.0948 0.456C17.9908 0.312 18.9188 0.24 19.8788 0.24C20.2788 0.24 20.7028 0.288 21.1508 0.383999C21.5988 0.479999 22.0068 0.655999 22.3748 0.912C22.7428 1.168 23.0468 1.504 23.2868 1.92C23.5428 2.336 23.6708 2.864 23.6708 3.504C23.6708 4.112 23.5668 4.68 23.3588 5.208C23.1668 5.736 22.9108 6.216 22.5908 6.648C22.2868 7.08 21.9348 7.456 21.5348 7.776C21.1348 8.08 20.7268 8.312 20.3108 8.472C20.5188 8.584 20.7348 8.744 20.9588 8.952C21.1828 9.16 21.3908 9.408 21.5828 9.696C21.7748 9.968 21.9268 10.296 22.0388 10.68C22.1668 11.064 22.2308 11.496 22.2308 11.976ZM16.7348 9.48C16.6708 9.864 16.6068 10.208 16.5428 10.512C16.4948 10.8 16.4468 11.08 16.3988 11.352C16.3508 11.624 16.2948 11.912 16.2308 12.216C16.1828 12.504 16.1268 12.848 16.0628 13.248C16.3668 13.216 16.7108 13.16 17.0948 13.08C17.4788 13 17.8468 12.88 18.1988 12.72C18.5508 12.544 18.8468 12.32 19.0868 12.048C19.3268 11.76 19.4468 11.416 19.4468 11.016C19.4468 10.728 19.3668 10.488 19.2068 10.296C19.0628 10.104 18.8708 9.944 18.6308 9.816C18.4068 9.688 18.1588 9.6 17.8868 9.552C17.6148 9.488 17.3588 9.456 17.1188 9.456C17.0388 9.456 16.9668 9.456 16.9028 9.456C16.8548 9.456 16.7988 9.464 16.7348 9.48ZM17.8148 3.672C17.7828 3.848 17.7428 4.056 17.6948 4.296C17.6628 4.536 17.6228 4.792 17.5748 5.064C17.5268 5.32 17.4708 5.576 17.4068 5.832C17.3588 6.088 17.3188 6.312 17.2868 6.504C17.6388 6.44 17.9908 6.352 18.3428 6.24C18.6948 6.128 19.0068 6.008 19.2788 5.88C19.5668 5.736 19.7908 5.584 19.9508 5.424C20.1268 5.264 20.2148 5.088 20.2148 4.896C20.2148 4.656 20.1428 4.464 19.9988 4.32C19.8548 4.16 19.6628 4.032 19.4228 3.936C19.1988 3.84 18.9588 3.776 18.7028 3.744C18.4628 3.696 18.2468 3.672 18.0548 3.672H17.8148Z" fill="#D61336"/>
</svg>
